<svg width="14" height="14" viewBox="0 0 14 14" fill="none" xmlns="http://www.w3.org/2000/svg">
<g clip-path="url(#clip0_109_2087)">
<path d="M0 7C0 8.85652 0.737498 10.637 2.05025 11.9497C3.36301 13.2625 5.14348 14 7 14C8.85652 14 10.637 13.2625 11.9497 11.9497C13.2625 10.637 14 8.85652 14 7C14 5.14348 13.2625 3.36301 11.9497 2.05025C10.637 0.737498 8.85652 0 7 0C5.14348 0 3.36301 0.737498 2.05025 2.05025C0.737498 3.36301 0 5.14348 0 7ZM7.68359 10.5273C7.42656 10.7844 7.01094 10.7844 6.75664 10.5273C6.50234 10.2703 6.49961 9.85469 6.75664 9.60039L8.69805 7.65898L3.71875 7.65625C3.35508 7.65625 3.0625 7.36367 3.0625 7C3.0625 6.63633 3.35508 6.34375 3.71875 6.34375H8.69805L6.75664 4.40234C6.49961 4.14531 6.49961 3.72969 6.75664 3.47539C7.01367 3.22109 7.4293 3.21836 7.68359 3.47539L10.7461 6.53516C11.0031 6.79219 11.0031 7.20781 10.7461 7.46211L7.68359 10.5273Z" fill="white"/>
</g>
<defs>
<clipPath id="clip0_109_2087">
<rect width="14" height="14" fill="white"/>
</clipPath>
</defs>
</svg>
